<svg width="428" height="926" viewBox="0 0 428 926" fill="none" xmlns="http://www.w3.org/2000/svg">
<path fill-rule="evenodd" clip-rule="evenodd" d="M550.957 119.33C550.957 185.235 497.531 238.661 431.626 238.661C365.722 238.661 312.296 185.235 312.296 119.33C312.296 53.4261 365.722 0 431.626 0C497.531 0 550.957 53.4261 550.957 119.33ZM-121.299 392.367C-117.108 399.761 -111.502 406.257 -104.8 411.485C-98.0826 416.704 -90.4017 420.546 -82.197 422.792C-73.9924 425.037 -65.4253 425.641 -56.9866 424.57C-48.548 423.498 -40.4038 420.772 -33.0207 416.548C-25.6376 412.323 -19.1607 406.683 -13.9613 399.951L101.866 251.482C102.326 251.82 102.564 252.003 102.564 252.003L204.375 331.557C211.076 336.785 218.741 340.642 226.933 342.908C235.125 345.173 243.683 345.803 252.119 344.761C260.554 343.719 268.701 341.025 276.095 336.834C283.49 332.643 289.986 327.036 295.213 320.334C305.783 306.798 310.544 289.619 308.452 272.574C306.359 255.528 297.583 240.011 284.053 229.434H283.991L135.857 113.844C128.436 108.057 119.947 103.789 110.876 101.284C101.806 98.7789 92.3299 98.0854 82.991 99.2434C73.652 100.401 64.6328 103.388 56.4485 108.033C52.2527 110.414 48.3185 113.207 44.7012 116.364L43.7089 115.59L36.9792 124.229C36.4044 124.913 35.842 125.607 35.2922 126.313L8.67047 160.167V159.855L-78.24 271.58C-75.9638 268.666 -73.6654 265.907 -71.348 263.296L-116.022 320.646C-121.25 327.347 -125.107 335.013 -127.373 343.205C-129.639 351.397 -130.268 359.955 -129.226 368.39C-128.184 376.825 -125.49 384.973 -121.299 392.367ZM595.951 446.638C598.088 439.279 598.752 431.57 597.903 423.953H598.028C596.287 408.66 588.575 394.674 576.571 385.041C564.567 375.407 549.243 370.906 533.936 372.518L382.632 389.025C382.621 388.544 382.622 388.292 382.622 388.292L375.889 314.536H375.826C375.533 311.584 374.366 308.787 372.473 306.503C370.58 304.218 368.049 302.551 365.203 301.714C362.357 300.877 359.326 300.908 356.498 301.804C353.67 302.7 351.174 304.42 349.329 306.743L273.891 403.504C270.689 407.635 269.174 412.827 269.651 418.031L274.389 470.464C279.128 522.648 337.234 510.802 337.234 510.802L360.625 508.262L360.676 508.744L546.281 488.294C553.9 487.472 561.282 485.153 568.003 481.472C574.725 477.79 580.653 472.818 585.449 466.841C590.245 460.863 593.814 453.998 595.951 446.638ZM151.006 861.686L234.123 795.141C230.771 799.291 226.733 803.313 221.928 807.168L343.095 709.998C349.921 704.539 355.601 697.785 359.811 690.125C364.021 682.466 366.677 674.05 367.627 665.362C368.577 656.673 367.802 647.882 365.347 639.494C362.892 631.105 358.805 623.284 353.32 616.479C351.683 614.549 349.934 612.717 348.083 610.992L348.519 610.431L317.346 585.493L147.765 450.888C134.193 440.109 116.899 435.158 99.6794 437.122C82.4603 439.086 66.7247 447.804 55.9288 461.362C50.5909 468.086 46.6306 475.796 44.2743 484.052C41.9179 492.308 41.2117 500.947 42.196 509.476C43.1804 518.005 45.8359 526.256 50.0109 533.758C54.1858 541.26 59.7984 547.866 66.5276 553.198L195.709 656.006C195.709 656.006 196.165 656.446 196.993 657.285L69.1458 759.563C62.4539 764.94 56.8873 771.583 52.764 779.113C48.6407 786.642 46.0416 794.91 45.1152 803.445C44.1888 811.979 44.9533 820.613 47.365 828.852C49.7766 837.09 53.7882 844.773 59.1704 851.461C70.0024 864.981 85.756 873.651 102.974 875.568C120.191 877.485 137.466 872.492 151.006 861.686ZM-45.3214 604.757L-254.555 814.178C-260.644 820.258 -265.474 827.478 -268.77 835.427C-272.066 843.376 -273.762 851.896 -273.762 860.501C-273.762 869.105 -272.066 877.626 -268.77 885.574C-265.474 893.523 -260.644 900.744 -254.555 906.824C-248.476 912.903 -241.259 917.726 -233.316 921.016C-225.373 924.307 -216.86 926 -208.263 926C-199.666 926 -191.152 924.307 -183.21 921.016C-175.267 917.726 -168.05 912.903 -161.971 906.824L47.2626 697.403C59.5446 685.116 66.4441 668.453 66.4441 651.08C66.4441 633.707 59.5446 617.045 47.2626 604.757C41.1837 598.677 33.9667 593.855 26.0239 590.565C18.0811 587.274 9.56793 585.581 0.970581 585.581C-7.62674 585.581 -16.1399 587.274 -24.0827 590.565C-32.0255 593.855 -39.2424 598.677 -45.3214 604.757Z" fill="#A1A6F3" fill-opacity="0.1"/>
</svg>
