<svg width="54" height="58" viewBox="0 0 54 58" fill="none" xmlns="http://www.w3.org/2000/svg">
<path d="M43.5813 14.8587C47.6532 14.8587 50.954 11.5325 50.954 7.42936C50.954 3.32624 47.6532 0 43.5813 0C39.5095 0 36.2086 3.32624 36.2086 7.42936C36.2086 11.5325 39.5095 14.8587 43.5813 14.8587Z" fill="#A1A6F3"/>
<path opacity="0.65" d="M10.4389 25.6184C10.0248 25.293 9.6784 24.8885 9.41945 24.4282C9.16051 23.9678 8.99409 23.4606 8.9297 22.9354C8.86532 22.4102 8.90423 21.8774 9.0442 21.3674C9.18418 20.8574 9.42249 20.3802 9.74552 19.963L19.6143 7.19641L25.92 12.1532L16.0512 24.9003C15.73 25.3195 15.3298 25.6706 14.8737 25.9336C14.4175 26.1967 13.9143 26.3664 13.3929 26.4331C12.8716 26.4998 12.3423 26.4622 11.8353 26.3224C11.3284 26.1826 10.8539 25.9434 10.4389 25.6184Z" fill="#A1A6F3"/>
<path d="M34.4599 14.2843L25.3076 7.0878C24.8491 6.72753 24.3246 6.46181 23.7642 6.30584C23.2038 6.14987 22.6183 6.1067 22.0413 6.17879C21.4643 6.25088 20.9071 6.43683 20.4014 6.726C19.8958 7.01518 19.4516 7.40192 19.0943 7.86412L17.4495 9.97182V9.95241L12.0798 16.9082C16.8679 10.7326 23.2506 15.6894 23.2506 15.6894L29.5409 20.6423C29.9549 20.9678 30.4285 21.208 30.9346 21.349C31.4408 21.4901 31.9695 21.5293 32.4907 21.4644C33.0119 21.3995 33.5152 21.2318 33.9721 20.9709C34.4289 20.7099 34.8303 20.3609 35.1532 19.9436C35.8063 19.1009 36.1005 18.0313 35.9712 16.9701C35.8419 15.9089 35.2997 14.9428 34.4637 14.2843H34.4599Z" fill="#A1A6F3"/>
<path opacity="0.65" d="M53.8546 26.3948C53.907 26.869 53.866 27.3489 53.734 27.8071C53.6019 28.2653 53.3814 28.6928 53.0851 29.0649C52.7888 29.4371 52.4225 29.7466 52.0072 29.9758C51.592 30.205 51.1359 30.3494 50.6651 30.4006L39.1978 31.6737L38.4274 24.454L49.9024 23.1925C50.8482 23.0921 51.7949 23.3724 52.5366 23.9721C53.2782 24.5719 53.7547 25.4427 53.8623 26.3948H53.8546Z" fill="#A1A6F3"/>
<path d="M40.1377 19.5826L40.5537 24.1745C40.5537 24.1745 40.5268 31.4952 48.2153 30.6568L37.7495 31.8018C37.7495 31.8018 34.1594 32.5393 33.8667 29.2904L33.5739 26.026C33.5444 25.702 33.6381 25.3788 33.8359 25.1216L38.4968 19.0974C38.6107 18.9528 38.765 18.8457 38.9397 18.7899C39.1144 18.7341 39.3017 18.7322 39.4775 18.7843C39.6533 18.8364 39.8097 18.9402 39.9267 19.0824C40.0436 19.2247 40.1158 19.3988 40.1339 19.5826H40.1377Z" fill="#A1A6F3"/>
<path opacity="0.65" d="M38.6084 43.6718L26.2436 53.6475C25.407 54.3203 24.3397 54.6311 23.2759 54.5117C22.2121 54.3924 21.2388 53.8526 20.5696 53.0109C20.237 52.5945 19.9892 52.1162 19.8402 51.6033C19.6912 51.0903 19.644 50.5528 19.7012 50.0215C19.7584 49.4901 19.919 48.9754 20.1738 48.5066C20.4285 48.0378 20.7724 47.6242 21.1859 47.2894L33.5508 37.3215" fill="#A1A6F3"/>
<path d="M38.4196 38.0395L38.4466 38.0046L36.5206 36.452L26.0432 28.0716C25.2047 27.4006 24.1362 27.0923 23.0723 27.2146C22.0084 27.3369 21.0362 27.8796 20.3692 28.7237C20.0394 29.1424 19.7947 29.6224 19.6492 30.1364C19.5036 30.6504 19.4599 31.1883 19.5208 31.7193C19.5816 32.2503 19.7456 32.764 20.0036 33.231C20.2615 33.6981 20.6083 34.1094 21.0241 34.4413L29.0054 40.842C29.0054 40.842 35.0299 46.6955 30.6232 50.2549L38.1115 44.2035C38.5332 43.8636 38.8842 43.4431 39.1443 42.9663C39.4044 42.4894 39.5685 41.9654 39.6272 41.4245C39.6858 40.8835 39.638 40.3362 39.4863 39.814C39.3346 39.2917 39.0821 38.8048 38.7432 38.3811C38.6421 38.261 38.534 38.1469 38.4196 38.0395Z" fill="#A1A6F3"/>
<path d="M1.18634 50.6897L14.1136 37.6514C14.4892 37.2729 14.9351 36.9726 15.4258 36.7678C15.9166 36.563 16.4425 36.4575 16.9737 36.4575C17.5049 36.4575 18.0309 36.563 18.5216 36.7678C19.0123 36.9726 19.4582 37.2729 19.8338 37.6514C20.5926 38.4164 21.0189 39.4538 21.0189 40.5354C21.0189 41.6171 20.5926 42.6544 19.8338 43.4194L6.90654 56.4577C6.53096 56.8362 6.08507 57.1365 5.59433 57.3413C5.10359 57.5461 4.57762 57.6516 4.04644 57.6516C3.51526 57.6516 2.98929 57.5461 2.49855 57.3413C2.00781 57.1365 1.56192 56.8362 1.18634 56.4577C0.810144 56.0792 0.511697 55.6296 0.308071 55.1347C0.104445 54.6399 -0.000366211 54.1094 -0.000366211 53.5737C-0.000366211 53.038 0.104445 52.5075 0.308071 52.0126C0.511697 51.5178 0.810144 51.0682 1.18634 50.6897Z" fill="#A1A6F3"/>
</svg>
