<svg width="193" height="58" viewBox="0 0 193 58" fill="none" xmlns="http://www.w3.org/2000/svg">
<path d="M43.5813 14.8587C47.6532 14.8587 50.954 11.5325 50.954 7.42936C50.954 3.32624 47.6532 0 43.5813 0C39.5095 0 36.2086 3.32624 36.2086 7.42936C36.2086 11.5325 39.5095 14.8587 43.5813 14.8587Z" fill="#A1A6F3"/>
<path opacity="0.65" d="M10.4389 25.6184C10.0248 25.293 9.6784 24.8885 9.41945 24.4282C9.16051 23.9678 8.99409 23.4606 8.9297 22.9354C8.86532 22.4102 8.90423 21.8774 9.0442 21.3674C9.18418 20.8574 9.42249 20.3802 9.74552 19.963V19.963L19.6143 7.19641L25.92 12.1532L16.0512 24.9003C15.73 25.3195 15.3298 25.6706 14.8737 25.9336C14.4175 26.1967 13.9143 26.3664 13.3929 26.4331C12.8716 26.4998 12.3423 26.4622 11.8353 26.3224C11.3284 26.1826 10.8539 25.9434 10.4389 25.6184V25.6184Z" fill="#A1A6F3"/>
<path d="M34.4599 14.2843L25.3076 7.0878C24.8491 6.72753 24.3246 6.46181 23.7642 6.30584C23.2038 6.14987 22.6183 6.1067 22.0413 6.17879C21.4643 6.25088 20.9071 6.43683 20.4014 6.726C19.8958 7.01518 19.4516 7.40192 19.0943 7.86412V7.86412L17.4495 9.97182V9.95241L12.0798 16.9082C16.8679 10.7326 23.2506 15.6894 23.2506 15.6894L29.5409 20.6423C29.9549 20.9678 30.4285 21.208 30.9346 21.349C31.4408 21.4901 31.9695 21.5293 32.4907 21.4644C33.0119 21.3995 33.5152 21.2318 33.9721 20.9709C34.4289 20.7099 34.8303 20.3609 35.1532 19.9436V19.9436C35.8063 19.1009 36.1005 18.0313 35.9712 16.9701C35.8419 15.9089 35.2997 14.9428 34.4637 14.2843H34.4599Z" fill="#A1A6F3"/>
<path opacity="0.65" d="M53.8546 26.3948C53.907 26.869 53.866 27.3489 53.734 27.8071C53.6019 28.2653 53.3814 28.6928 53.0851 29.0649C52.7888 29.4371 52.4225 29.7466 52.0072 29.9758C51.592 30.205 51.1359 30.3494 50.6651 30.4006V30.4006L39.1978 31.6737L38.4274 24.454L49.9024 23.1925C50.8482 23.0921 51.7949 23.3724 52.5366 23.9721C53.2782 24.5719 53.7547 25.4427 53.8623 26.3948H53.8546Z" fill="#A1A6F3"/>
<path d="M40.1377 19.5826L40.5537 24.1745C40.5537 24.1745 40.5268 31.4952 48.2153 30.6568L37.7495 31.8018C37.7495 31.8018 34.1594 32.5393 33.8667 29.2904L33.5739 26.026C33.5444 25.702 33.6381 25.3788 33.8359 25.1216L38.4968 19.0974C38.6107 18.9528 38.765 18.8457 38.9397 18.7899C39.1144 18.7341 39.3017 18.7322 39.4775 18.7843C39.6533 18.8364 39.8097 18.9402 39.9267 19.0824C40.0436 19.2247 40.1158 19.3988 40.1339 19.5826H40.1377Z" fill="#A1A6F3"/>
<path opacity="0.65" d="M38.6084 43.6718L26.2436 53.6475C25.407 54.3203 24.3397 54.6311 23.2759 54.5117C22.2121 54.3924 21.2388 53.8526 20.5696 53.0109C20.237 52.5945 19.9892 52.1162 19.8402 51.6033C19.6912 51.0903 19.644 50.5528 19.7012 50.0215C19.7584 49.4901 19.919 48.9754 20.1738 48.5066C20.4285 48.0378 20.7724 47.6242 21.1859 47.2894L33.5508 37.3215" fill="#A1A6F3"/>
<path d="M38.4196 38.0395L38.4466 38.0046L36.5206 36.452L26.0432 28.0716C25.2047 27.4006 24.1362 27.0923 23.0723 27.2146C22.0084 27.3369 21.0362 27.8796 20.3692 28.7237V28.7237C20.0394 29.1424 19.7947 29.6224 19.6492 30.1364C19.5036 30.6504 19.4599 31.1883 19.5208 31.7193C19.5816 32.2503 19.7456 32.764 20.0036 33.231C20.2615 33.6981 20.6083 34.1094 21.0241 34.4413L29.0054 40.842C29.0054 40.842 35.0299 46.6955 30.6232 50.2549L38.1115 44.2035C38.5332 43.8636 38.8842 43.4431 39.1443 42.9663C39.4044 42.4894 39.5685 41.9654 39.6272 41.4245C39.6858 40.8835 39.638 40.3362 39.4863 39.814C39.3346 39.2917 39.0821 38.8048 38.7432 38.3811C38.6421 38.261 38.534 38.1469 38.4196 38.0395Z" fill="#A1A6F3"/>
<path d="M1.18634 50.6897L14.1136 37.6514C14.4892 37.2729 14.9351 36.9726 15.4258 36.7678C15.9166 36.563 16.4425 36.4575 16.9737 36.4575C17.5049 36.4575 18.0309 36.563 18.5216 36.7678C19.0123 36.9726 19.4582 37.2729 19.8338 37.6514V37.6514C20.5926 38.4164 21.0189 39.4538 21.0189 40.5354C21.0189 41.6171 20.5926 42.6544 19.8338 43.4194L6.90654 56.4577C6.53096 56.8362 6.08507 57.1365 5.59433 57.3413C5.10359 57.5461 4.57762 57.6516 4.04644 57.6516C3.51526 57.6516 2.98929 57.5461 2.49855 57.3413C2.00781 57.1365 1.56192 56.8362 1.18634 56.4577V56.4577C0.810144 56.0792 0.511697 55.6296 0.308071 55.1347C0.104445 54.6399 -0.000366211 54.1094 -0.000366211 53.5737C-0.000366211 53.038 0.104445 52.5075 0.308071 52.0126C0.511697 51.5178 0.810144 51.0682 1.18634 50.6897V50.6897Z" fill="#A1A6F3"/>
<path d="M72.4173 42.81C69.8725 42.0647 67.8271 41.0956 66.2811 39.9027L68.9775 33.8435C70.5879 35.0079 72.3754 35.9006 74.2701 36.4869C76.2447 37.1399 78.309 37.4752 80.3871 37.4806C82.6521 37.4806 84.3315 37.1429 85.4139 36.4636C86.4964 35.7843 87.0433 34.8838 87.0433 33.7465C87.0488 33.3518 86.965 32.961 86.7981 32.6038C86.6312 32.2467 86.3858 31.9326 86.0803 31.6854C85.3509 31.09 84.5137 30.6431 83.6151 30.3695C82.6136 30.0383 81.2577 29.6734 79.5474 29.2749C77.3586 28.7767 75.2015 28.1467 73.0876 27.3884C71.4174 26.7636 69.9326 25.7203 68.7734 24.3569C67.5767 22.9673 66.977 21.1119 66.9745 18.7907C66.956 16.8381 67.5225 14.9252 68.6 13.3022C69.6863 11.6641 71.3221 10.3703 73.5075 9.42058C75.6928 8.47088 78.3635 7.99086 81.5196 7.98051C83.6972 7.97669 85.8668 8.24395 87.9794 8.77624C89.9269 9.24207 91.7896 10.0136 93.4993 11.0625L91.034 17.1721C87.8497 15.3607 84.6615 14.455 81.4695 14.455C79.2354 14.455 77.5841 14.8199 76.5159 15.5496C76.0233 15.8479 75.6165 16.2704 75.3355 16.7755C75.0545 17.2805 74.909 17.8507 74.9134 18.4297C74.9134 19.6214 75.5297 20.5103 76.7624 21.0886C78.5823 21.8506 80.4743 22.4242 82.4094 22.8004C84.5964 23.302 86.7521 23.9332 88.8653 24.6907C90.5264 25.3086 92.009 26.333 93.1796 27.6718C94.3814 29.0304 94.981 30.8689 94.9784 33.1875C94.9913 35.1259 94.4161 37.022 93.3298 38.6218C92.2281 40.2624 90.5756 41.5562 88.3723 42.5033C86.1689 43.4505 83.4905 43.9305 80.337 43.9434C77.6572 43.9457 74.9906 43.5641 72.4173 42.81Z" fill="#2C303F"/>
<path d="M117.019 42.0415C116.181 42.6415 115.236 43.0713 114.234 43.3069C113.101 43.5931 111.936 43.7352 110.768 43.73C107.614 43.73 105.175 42.9188 103.449 41.2963C101.723 39.6738 100.857 37.2943 100.849 34.158V23.1615H96.7542V17.1994H100.849V10.6899H108.553V17.1994H115.159V23.1615H108.537V34.0299C108.473 34.9828 108.781 35.9232 109.396 36.65C109.716 36.9676 110.099 37.2137 110.52 37.3722C110.941 37.5307 111.39 37.5981 111.839 37.5699C112.955 37.6021 114.05 37.2518 114.943 36.5763L117.019 42.0415Z" fill="#2C303F"/>
<path d="M146.376 32.1551H126.307C126.619 33.7512 127.531 35.1641 128.853 36.0988C130.201 37.0615 131.877 37.5415 133.88 37.5389C135.132 37.5621 136.378 37.3516 137.554 36.9178C138.668 36.4796 139.682 35.8195 140.536 34.977L144.631 39.4447C142.129 42.3301 138.48 43.7714 133.683 43.7688C130.936 43.8239 128.215 43.2198 125.744 42.0066C123.542 40.9214 121.694 39.2227 120.421 37.1119C119.157 34.9642 118.509 32.5053 118.549 30.0086C118.51 27.5139 119.149 25.0559 120.398 22.9014C121.606 20.8197 123.364 19.1161 125.475 17.9796C127.68 16.8341 130.123 16.2303 132.604 16.2175C135.085 16.2047 137.533 16.7832 139.75 17.9058C141.828 19.0083 143.548 20.6899 144.704 22.75C145.937 24.9893 146.557 27.5183 146.503 30.0785C146.503 30.1677 146.453 30.8626 146.376 32.1551ZM128.36 23.5574C127.154 24.5928 126.38 26.048 126.191 27.6331H139.257C139.055 26.059 138.281 24.6164 137.085 23.5846C135.872 22.5608 134.329 22.0208 132.747 22.0669C131.154 22.0155 129.597 22.5447 128.36 23.5574Z" fill="#2C303F"/>
<path d="M174.04 17.9213C176.044 19.0449 177.692 20.7143 178.798 22.7383C179.985 24.9573 180.58 27.4493 180.523 29.9697C180.58 32.4889 179.985 34.9796 178.798 37.1972C177.691 39.2215 176.043 40.892 174.04 42.0182C171.983 43.1686 169.664 43.7586 167.311 43.73C163.924 43.73 161.261 42.6535 159.322 40.5005V52.972H151.618V16.6015H158.968V19.6835C160.871 17.3546 163.648 16.1901 167.299 16.1901C169.658 16.163 171.982 16.7599 174.04 17.9213ZM170.836 35.3574C172.099 34.0169 172.732 32.2211 172.735 29.9697C172.737 27.7184 172.104 25.9212 170.836 24.5782C169.544 23.2873 167.798 22.563 165.978 22.563C164.159 22.563 162.413 23.2873 161.121 24.5782C159.857 25.9161 159.226 27.7132 159.226 29.9697C159.226 32.2262 159.857 34.0221 161.121 35.3574C162.413 36.6483 164.159 37.3726 165.978 37.3726C167.798 37.3726 169.544 36.6483 170.836 35.3574Z" fill="#2C303F"/>
<path d="M184.814 42.3404C184.359 41.8845 184.001 41.3392 183.763 40.7383C183.525 40.1374 183.412 39.4936 183.432 38.8469C183.406 38.2053 183.517 37.5656 183.755 36.97C183.993 36.3745 184.355 35.8368 184.814 35.3923C185.748 34.5448 186.959 34.0758 188.216 34.0758C189.472 34.0758 190.684 34.5448 191.617 35.3923C192.077 35.8368 192.438 36.3745 192.677 36.97C192.915 37.5656 193.025 38.2053 193 38.8469C193.019 39.4936 192.906 40.1374 192.668 40.7383C192.431 41.3392 192.073 41.8845 191.617 42.3404C190.706 43.2315 189.486 43.7299 188.216 43.7299C186.946 43.7299 185.726 43.2315 184.814 42.3404Z" fill="#A1A6F3"/>
</svg>
